<?xml version="1.0" encoding="UTF-8"?>
<svg xmlns="http://www.w3.org/2000/svg" width="24" height="24" viewBox="0 0 24 24" fill="none">
  <path d="M5.48227 22C5.21618 22 4.40181 22 4.07928 21.2981C3.80513 20.7011 4.07928 20.0315 4.40181 19.6361C5.47421 18.3211 6.88526 17.3449 8.58659 16.7237C9.09456 16.5381 9.59448 16.401 10.1347 16.2557C10.2718 16.2154 10.4169 16.1751 10.554 16.1428L9.53804 12.2138L9.32033 12.2703C8.07054 12.6091 5.15168 13.3998 3.90189 13.7305C3.76482 13.7709 3.61968 13.787 3.48261 13.787C2.75692 13.787 2.20056 13.2787 2.08768 12.5123C1.75709 10.2372 2.36183 8.15571 3.89383 6.33239C5.01461 5.01735 6.64336 4.21057 7.38517 3.88786L7.20778 3.18596C7.07877 2.66156 7.34486 2.17749 7.83671 2.03227C7.91734 2.00807 7.99797 2 8.07861 2C8.48176 2 8.82848 2.2743 8.94943 2.69383C9.01393 2.92779 9.07844 3.16983 9.14294 3.40379C9.18326 3.40379 9.22358 3.39572 9.26389 3.38766C9.56223 3.34732 9.8525 3.31505 10.1508 3.30698C10.2557 3.30698 10.3524 3.30698 10.4572 3.30698C13.2874 3.30698 15.5209 4.4284 17.0852 6.63897C17.4319 7.1311 17.6818 7.69584 17.9076 8.23639C18.0769 8.63977 18.0689 9.06737 17.8915 9.43848C17.706 9.81767 17.3754 10.0839 16.9481 10.2049C15.6983 10.5518 13.5857 11.1246 12.2392 11.4877C11.8441 11.5926 11.5135 11.6813 11.2958 11.7459L12.3763 15.933C12.5617 15.9169 12.8197 15.9088 13.1423 15.9088C14.5211 15.9088 16.561 16.1267 18.4881 17.1593C19.7299 17.7644 20.7942 18.6035 21.6408 19.6281C22.0279 20.096 22.1004 20.6285 21.8666 21.161C21.6247 21.7015 21.157 22 20.5523 22H5.48227ZM19.625 20.1363C19.0364 19.5797 18.3833 19.1843 17.8915 18.9262C16.3998 18.1517 14.7791 17.7564 13.0616 17.7564C12.7633 17.7564 12.465 17.7644 12.1666 17.7886C10.4169 17.9177 8.83654 18.434 7.46581 19.3215C7.08684 19.5716 6.74012 19.8378 6.41759 20.1363H19.625ZM6.18376 6.62283C5.44195 7.18758 4.69208 8.22832 4.20829 9.40621C3.8132 10.3663 3.66806 11.2537 3.79707 11.8588L6.33696 11.1731C6.1112 9.88221 5.92574 8.28479 6.18376 6.6309V6.62283ZM8.78816 5.34812C8.61884 5.34812 8.4737 5.47721 8.35275 5.72731C8.18343 6.08229 8.04635 6.50182 7.97378 6.93747C7.78027 7.98628 7.86896 9.04316 7.97378 9.93869C8.00604 10.1807 8.04635 10.4228 8.08667 10.6729V10.689L11.7877 9.68858C11.4329 8.65591 10.9249 7.41347 10.0783 6.3566C9.82025 6.03388 9.50578 5.73538 9.16713 5.50141C9.03006 5.4046 8.89299 5.34812 8.7801 5.34812H8.78816ZM11.5216 5.23518C12.5133 6.51795 13.11 7.93788 13.5454 9.21259L16.0853 8.52683C15.7789 7.76039 14.892 6.73578 14.0131 6.17104C13.2471 5.6789 12.4246 5.37233 11.5135 5.23518H11.5216Z" fill="#009FDA"></path>
</svg>
