<?xml version="1.0" encoding="UTF-8"?>
<svg xmlns="http://www.w3.org/2000/svg" width="24" height="24" viewBox="0 0 24 24" fill="none">
  <path fill-rule="evenodd" clip-rule="evenodd" d="M11.5936 2.08619C11.8522 1.97127 12.1473 1.97127 12.4059 2.08619L21.4059 6.08619C21.9106 6.31049 22.1379 6.90145 21.9136 7.40614C21.6893 7.91082 21.0983 8.13812 20.5936 7.91381L11.9998 4.09432L3.4059 7.91381C2.90122 8.13812 2.31025 7.91082 2.08595 7.40614C1.86165 6.90145 2.08894 6.31049 2.59362 6.08619L11.5936 2.08619ZM1.99976 10C1.99976 9.44772 2.44748 9 2.99976 9H20.9998C21.552 9 21.9998 9.44772 21.9998 10C21.9998 10.5523 21.552 11 20.9998 11V20C21.552 20 21.9998 20.4477 21.9998 21C21.9998 21.5523 21.552 22 20.9998 22H2.99976C2.44748 22 1.99976 21.5523 1.99976 21C1.99976 20.4477 2.44748 20 2.99976 20V11C2.44748 11 1.99976 10.5523 1.99976 10ZM4.99976 11V20H18.9998V11H4.99976ZM7.99976 13C8.55205 13 8.99976 13.4477 8.99976 14V17C8.99976 17.5523 8.55205 18 7.99976 18C7.44748 18 6.99976 17.5523 6.99976 17V14C6.99976 13.4477 7.44748 13 7.99976 13ZM11.9998 13C12.552 13 12.9998 13.4477 12.9998 14V17C12.9998 17.5523 12.552 18 11.9998 18C11.4475 18 10.9998 17.5523 10.9998 17V14C10.9998 13.4477 11.4475 13 11.9998 13ZM15.9998 13C16.552 13 16.9998 13.4477 16.9998 14V17C16.9998 17.5523 16.552 18 15.9998 18C15.4475 18 14.9998 17.5523 14.9998 17V14C14.9998 13.4477 15.4475 13 15.9998 13Z" fill="#009FDA"></path>
</svg>
