<?xml version="1.0" encoding="UTF-8"?>
<svg xmlns="http://www.w3.org/2000/svg" width="24" height="24" viewBox="0 0 24 24" fill="none">
  <path d="M6.78968 22C5.59828 22 4.62132 21.0397 4.60544 19.8651C4.59749 19.0317 4.59749 18.2063 4.60544 17.373V16.1032C4.60544 14.8492 4.60544 13.5952 4.60544 12.3413C2.69918 10.9841 1.84137 9.1746 2.02405 6.90476C2.14319 5.43651 2.72301 4.20635 3.74762 3.24603C4.60544 2.44444 5.69359 2 6.79763 2C8.11612 2 9.3949 2.63492 10.3083 3.7381C11.3409 4.99206 11.7936 6.74603 11.5315 8.42063C11.2773 10.0238 10.3798 11.3889 9.0057 12.2698C8.98982 14.8095 8.99776 17.2857 8.98982 19.754C8.98982 20.7698 8.37823 21.6111 7.44099 21.9048C7.23448 21.9683 7.01208 22 6.79763 22H6.78968ZM6.78968 3.77778C6.11455 3.77778 5.44736 4.06349 4.92314 4.57143C4.28773 5.19048 3.92236 5.98413 3.80322 6.99206C3.60465 8.68254 4.33538 10.1032 5.82067 10.8968C6.20987 11.1032 6.39255 11.4127 6.39255 11.8571C6.39255 12.746 6.39255 13.627 6.39255 14.5159V19.4206C6.39255 19.5556 6.39255 19.6825 6.39255 19.8175C6.40049 20.0317 6.56729 20.2063 6.7738 20.2143C6.99619 20.2143 7.16299 20.0794 7.20271 19.8889C7.21065 19.8413 7.21065 19.7778 7.21065 19.7143V18.7936C7.21065 16.4762 7.21065 14.1508 7.21065 11.8333C7.21065 11.4127 7.39333 11.1111 7.76664 10.9048C8.07641 10.7381 8.31469 10.5794 8.50531 10.4206C9.31547 9.75397 9.78409 8.76984 9.8238 7.64286C9.86352 6.46032 9.42667 5.28571 8.67211 4.57143C8.13995 4.06349 7.47276 3.78571 6.79763 3.78571L6.78968 3.77778ZM17.2026 22C16.0112 22 15.0263 21.0238 15.0183 19.8254C15.0183 18.7063 15.0183 17.5952 15.0183 16.4762V12.7778L14.9627 12.7619C14.0732 12.4921 13.3821 11.9683 12.9135 11.1984C12.5799 10.6508 12.4131 10.0714 12.4131 9.45238C12.4131 7.56349 12.4131 5.6746 12.4131 3.77778V2.94444C12.4131 2.4127 12.7944 2.00794 13.3027 2.00794C13.819 2.00794 14.1923 2.4127 14.1923 2.96032V9.30159C14.1923 10.3651 14.8515 11.0635 15.9238 11.119C16.456 11.1429 16.7975 11.5238 16.7975 12.0873V19.6905C16.7975 19.7698 16.7975 19.8651 16.8213 19.9444C16.869 20.1111 17.0279 20.2302 17.2105 20.2302C17.4409 20.2063 17.5997 20.0476 17.6156 19.8492C17.6156 19.8016 17.6156 19.754 17.6156 19.7063V12.1429C17.6156 11.4762 17.9254 11.1508 18.6005 11.119C19.506 11.0794 20.2208 10.3333 20.2208 9.42063C20.2208 8 20.2208 6.57143 20.2208 5.15079V3.00794C20.2208 2.88095 20.2208 2.74603 20.2685 2.61905C20.3876 2.25397 20.7212 2 21.1184 2H21.1978C21.6108 2.03968 21.9603 2.38095 22 2.79365C22 2.85714 22 2.92063 22 2.99206V9.24603C22 10.9365 21.0469 12.254 19.4504 12.754L19.3948 12.7698V19.7698C19.3948 20.7778 18.7753 21.619 17.8301 21.9048C17.6236 21.9683 17.4091 22 17.1947 22H17.2026ZM18.5052 10.2857C18.3225 10.2857 18.1478 10.2222 17.9889 10.1111C17.7427 9.93651 17.6156 9.6746 17.6236 9.33333V2.96825C17.6236 2.40476 17.9889 2 18.5052 2C19.0215 2 19.4027 2.40476 19.4027 2.96032V9.34127C19.4027 9.73016 19.2359 10.0159 18.9103 10.1825C18.7753 10.254 18.6482 10.2857 18.5052 10.2857ZM15.9079 10.2857C15.7252 10.2857 15.5505 10.2222 15.3917 10.1111C15.1454 9.93651 15.0183 9.6746 15.0263 9.33333C15.0263 8.42063 15.0263 7.51587 15.0263 6.60317V2.97619C15.0183 2.40476 15.3837 2 15.9 2C16.4163 2 16.7975 2.40476 16.7975 2.96032V9.34127C16.7975 9.73016 16.6307 10.0159 16.3051 10.1825C16.17 10.254 16.043 10.2857 15.9 10.2857H15.9079Z" fill="#009FDA"></path>
</svg>
